<?xml version="1.0" encoding="utf-8"?>
<!-- Generator: Adobe Illustrator 26.3.1, SVG Export Plug-In . SVG Version: 6.00 Build 0)  -->
<svg version="1.1" id="Layer_1" xmlns="http://www.w3.org/2000/svg" xmlns:xlink="http://www.w3.org/1999/xlink" x="0px" y="0px"
	 viewBox="0 0 260 260" style="enable-background:new 0 0 260 260;" xml:space="preserve">
<style type="text/css">
	.st0{fill:#5C5C5C;}
	.st1{fill:#E7C54A;}
	.st2{fill:#DF7867;}
</style>
<path class="st0" d="M159.46,71H12.24C5.48,71,0,65.53,0,58.77V12.24C0,5.48,5.48,0,12.24,0h147.23c6.76,0,12.24,5.48,12.24,12.24
	v46.53C171.7,65.53,166.22,71,159.46,71z"/>
<path class="st0" d="M247.76,71h-46.53C194.47,71,189,65.53,189,58.77V12.24C189,5.48,194.47,0,201.23,0h46.53
	C254.52,0,260,5.48,260,12.24v46.53C260,65.53,254.52,71,247.76,71z"/>
<path class="st1" d="M247.76,260h-46.53c-6.76,0-12.24-5.48-12.24-12.24V100.54c0-6.76,5.48-12.24,12.24-12.24h46.53
	c6.76,0,12.24,5.48,12.24,12.24v147.23C260,254.52,254.52,260,247.76,260z"/>
<path class="st2" d="M12.24,260h147.23c6.76,0,12.24-5.48,12.24-12.24V100.54c0-6.76-5.48-12.24-12.24-12.24H12.24
	C5.48,88.3,0,93.78,0,100.54v147.23C0,254.52,5.48,260,12.24,260z"/>
</svg>
